{"title":"BRIDE FLIGHT [ENG SUBS - YEHAA]","uid":6637985,"size":1564999363,"categoryP":"video","categoryS":"movies_dvdr","magnet":"?xt=urn:btih:affefd1cfacadfccadc3dadb7f1c817e0a28116c&amp;dn=BRIDE+FLIGHT+%5BENG+SUBS+-+YEHAA%5D&amp;tr=udp%3A%2F%2Ftracker.openbittorrent.com%3A80&amp;tr=udp%3A%2F%2Fopen.demonii.com%3A1337&amp;tr=udp%3A%2F%2Ftracker.coppersurfer.tk%3A6969&amp;tr=udp%3A%2F%2Fexodus.desync.com%3A6969","seeders":0,"leechers":1,"uploader":"musodata","files":1,"time":1314633673,"description":"ONLY DIFF HERE IS RE-MUXED WITH SUBTITLES THAT WORK\n\nYEHAA  @@@@@@@@@@@@@@@@@@@@@@@@@@@@@@@@@@\n\nBride.Flight.2008.DVDRip.AC3.X264-BARC0DE\n*******************************************************************************\n\n-------------------------------------------------------------------------------\n                              General Information\n-------------------------------------------------------------------------------\nType.................: Movie\nName.................: Bride Flight\nMovie Information....: http://www.imdb.com/title/tt1094241/\nGenre................: Drama | Sport\n-------------------------------------------------------------------------------\n                                    PLOT\n-------------------------------------------------------------------------------\n\nThe story of the women on the KLM flight that won the 1953 Air Race from London \nto Christchurch, New Zealand.\n\n-------------------------------------------------------------------------------\n                                    CAST\n-------------------------------------------------------------------------------\nKarina Smulders\t... \tAda\nWaldemar Torenstra\t... \tFrank\nAnna Drijver\t... \tEsther\nPleuni Touw\t... \tOld Ada\nPetra Laseur\t... \tOld Marjorie\nElise Schaap\t... \tMarjorie\nWilleke van Ammelrooy\t... \tOld Esther\nRutger Hauer\t... \tOld Frank\n\n-------------------------------------------------------------------------------\n                                    MEDiA iNFO\n-------------------------------------------------------------------------------\n\nGeneral\nComplete name                    : Bride.Flight.2008.DVDRip.AC3.X264-BARC0DE.mkv\nFormat                           : Matroska\nFile size                        : 1.46 GiB\nDuration                         : 2h 4mn\nOverall bit rate                 : 1 683 Kbps\n\nVideo\nID                               : 1\nFormat                           : AVC\nFormat/Info                      : Advanced Video Codec\nFormat profile                   : &lt;a class=&quot;__cf_email__&quot; href=&quot;/cdn-cgi/l/email-protection&quot; data-cfemail=&quot;357d5c525d7579061b05&quot;&gt;[email&amp;#160;protected]&lt;/a&gt;&lt;script cf-hash='f9e31' type=&quot;text/javascript&quot;&gt;\n/* &lt;![CDATA[ */!function(){try{var t=&quot;currentScript&quot;in document?document.currentScript:function(){for(var t=document.getElementsByTagName(&quot;script&quot;),e=t.length;e--;)if(t[e].getAttribute(&quot;cf-hash&quot;))return t[e]}();if(t&amp;&amp;t.previousSibling){var e,r,n,i,c=t.previousSibling,a=c.getAttribute(&quot;data-cfemail&quot;);if(a){for(e=&quot;&quot;,r=parseInt(a.substr(0,2),16),n=2;a.length-n;n+=2)i=parseInt(a.substr(n,2),16)^r,e+=String.fromCharCode(i);e=document.createTextNode(e),c.parentNode.replaceChild(e,c)}}}catch(u){}}();/* ]]&gt; */&lt;/script&gt;\nFormat settings, CABAC           : Yes\nFormat settings, ReFrames        : 3 frames\nMuxing mode                      : Container profile=&lt;a class=&quot;__cf_email__&quot; href=&quot;/cdn-cgi/l/email-protection&quot; data-cfemail=&quot;11447f7a7f7e667f51223f21&quot;&gt;[email&amp;#160;protected]&lt;/a&gt;&lt;script cf-hash='f9e31' type=&quot;text/javascript&quot;&gt;\n/* &lt;![CDATA[ */!function(){try{var t=&quot;currentScript&quot;in document?document.currentScript:function(){for(var t=document.getElementsByTagName(&quot;script&quot;),e=t.length;e--;)if(t[e].getAttribute(&quot;cf-hash&quot;))return t[e]}();if(t&amp;&amp;t.previousSibling){var e,r,n,i,c=t.previousSibling,a=c.getAttribute(&quot;data-cfemail&quot;);if(a){for(e=&quot;&quot;,r=parseInt(a.substr(0,2),16),n=2;a.length-n;n+=2)i=parseInt(a.substr(n,2),16)^r,e+=String.fromCharCode(i);e=document.createTextNode(e),c.parentNode.replaceChild(e,c)}}}catch(u){}}();/* ]]&gt; */&lt;/script&gt;\nCodec ID                         : V_MPEG4/ISO/AVC\nDuration                         : 2h 4mn\nBit rate                         : 1 230 Kbps\nWidth                            : 720 pixels\nHeight                           : 320 pixels\nDisplay aspect ratio             : 2.25:1\nFrame rate                       : 25.000 fps\nColor space                      : YUV\nChroma subsampling               : 4:2:0\nBit depth                        : 8 bits\nScan type                        : Progressive\nBits/(Pixel*Frame)               : 0.214\nStream size                      : 1.04 GiB (71%)\nWriting library                  : x264 core 79\n\n\nAudio\nID                               : 2\nFormat                           : AC-3\nFormat/Info                      : Audio Coding 3\nMode extension                   : CM (complete main)\nCodec ID                         : A_AC3\nDuration                         : 2h 4mn\nBit rate mode                    : Constant\nBit rate                         : 448 Kbps\nChannel(s)                       : 6 channels\nChannel positions                : Front: L C R, Side: L R, LFE\nSampling rate                    : 48.0 KHz\nStream size                      : 399 MiB (27%)\nLanguage                         : Dutch\n\nText\nID                               : 3\nFormat                           : VobSub\nCodec ID                         : S_VOBSUB\nCodec ID/Info                    : The same subtitle format used on DVDs\nLanguage                         : English","torrent":{"xt":"urn:btih:affefd1cfacadfccadc3dadb7f1c817e0a28116c","amp;dn":"BRIDE+FLIGHT+%5BENG+SUBS+-+YEHAA%5D","amp;tr":["udp%3A%2F%2Ftracker.openbittorrent.com%3A80","udp%3A%2F%2Fopen.demonii.com%3A1337","udp%3A%2F%2Ftracker.coppersurfer.tk%3A6969","udp%3A%2F%2Fexodus.desync.com%3A6969"],"infoHash":"affefd1cfacadfccadc3dadb7f1c817e0a28116c","infoHashBuffer":{"type":"Buffer","data":[175,254,253,28,250,202,223,204,173,195,218,219,127,28,129,126,10,40,17,108]},"announce":[],"urlList":[]}}